<?xml version="1.0" standalone="no"?>
<!DOCTYPE svg PUBLIC "-//W3C//DTD SVG 20010904//EN"
 "http://www.w3.org/TR/2001/REC-SVG-20010904/DTD/svg10.dtd">
<svg version="1.0" xmlns="http://www.w3.org/2000/svg"
 width="218.000000pt" height="123.000000pt" viewBox="0 0 218.000000 123.000000"
 preserveAspectRatio="xMidYMid meet">

<g transform="translate(0.000000,123.000000) scale(0.100000,-0.100000)"
fill="#000000" stroke="none">
<path d="M1890 610 c0 -253 1 -260 20 -260 19 0 20 7 20 260 0 253 -1 260 -20
260 -19 0 -20 -7 -20 -260z"/>
<path d="M1170 620 l0 -170 30 0 30 0 0 170 0 170 -30 0 -30 0 0 -170z"/>
<path d="M270 610 l0 -160 30 0 30 0 0 60 c0 60 0 60 30 60 26 0 33 -7 60 -60
28 -56 32 -60 66 -60 l35 0 -37 66 c-34 61 -36 67 -20 76 30 17 47 70 35 112
-14 49 -53 66 -154 66 l-75 0 0 -160z m158 98 c7 -7 12 -24 12 -38 0 -37 -18
-50 -67 -50 l-43 0 0 50 0 50 43 0 c24 0 48 -5 55 -12z"/>
<path d="M560 610 l0 -160 30 0 30 0 0 70 0 70 65 0 65 0 0 -70 0 -70 35 0 35
0 0 160 0 160 -35 0 -35 0 0 -65 0 -65 -65 0 -65 0 0 65 0 65 -30 0 -30 0 0
-160z"/>
<path d="M880 610 l0 -160 30 0 c28 0 29 1 32 58 l3 57 63 5 c54 4 67 9 88 33
42 49 27 124 -31 152 -21 9 -61 15 -109 15 l-76 0 0 -160z m166 85 c14 -21 15
-31 6 -50 -10 -22 -18 -25 -62 -25 l-50 0 0 50 0 50 45 0 c37 0 47 -4 61 -25z"/>
<path d="M1284 665 c-12 -47 3 -175 22 -196 19 -21 73 -26 105 -9 13 7 19 7
19 0 0 -5 14 -10 30 -10 l30 0 0 120 0 120 -30 0 -30 0 0 -84 c0 -91 -10 -110
-52 -104 -22 3 -23 8 -28 93 -5 89 -5 90 -32 93 -22 3 -29 -2 -34 -23z"/>
<path d="M1566 669 c-30 -24 -35 -69 -10 -90 9 -8 37 -21 63 -30 33 -11 46
-21 46 -35 0 -25 -46 -31 -68 -10 -21 22 -71 22 -63 0 3 -9 6 -17 6 -20 0 -12
65 -34 100 -34 30 0 47 6 65 25 46 45 28 85 -50 113 -37 13 -50 23 -50 37 0
25 37 32 55 10 14 -17 70 -21 70 -5 0 6 -11 22 -25 35 -32 33 -100 35 -139 4z"/>
</g>
</svg>
